# xmcd
# 
# Track frame offsets:
#     150
#     18132
#     33635
#     49402
#     68312
#     82415
#     100307
#     117260
#     136965
#     160815
#     168705
#     187395
#     211372
#     228487
#     242580
#     259272
# 
# Disc length: 3603
# 
# Revision: 12
# Processed by: cddbd v1.5.2PL0 Copyright (c) Steve Scherf et al.
# Submitted via: fre:ac v1.0.17
# 
DISCID=e70e1110
DTITLE=Janis Joplin - Absolute Janis CD1
DYEAR=1997
DGENRE=Blues
TTITLE0=Cry Baby
TTITLE1=Get It While You Can
TTITLE2=A Woman Left Lonely
TTITLE3=Piece Of My Heart
TTITLE4=Down On Me
TTITLE5=Try (Just A Little Bit Harder)
TTITLE6=My Baby
TTITLE7=Kozmic Blues
TTITLE8=Ball and Chain
TTITLE9=I'll Drown In My Own Tears
TTITLE10=Maybe
TTITLE11=To Love Somebody
TTITLE12=Raise Your Hand (live)
TTITLE13=Magic Of Love
TTITLE14=Bye, Bye Baby
TTITLE15=Buried Alive In The Blues
EXTD=
EXTT0=
EXTT1=
EXTT2=
EXTT3=
EXTT4=
EXTT5=
EXTT6=
EXTT7=
EXTT8=
EXTT9=
EXTT10=
EXTT11=
EXTT12=
EXTT13=
EXTT14=
EXTT15=
PLAYORDER=
